{
  "accessors": [
    {
      "bufferView": 2,
      "componentType": 5126,
      "count": 3616,
      "max": [
        1.08237624168396,
        0.5923322439193726,
        1.1228059530258179
      ],
      "min": [
        -1.116458773612976,
        -0.2129666954278946,
        -1.1010899543762207
      ],
      "type": "VEC3"
    },
    {
      "bufferView": 2,
      "byteOffset": 43392,
      "componentType": 5126,
      "count": 3616,
      "max": [
        0.9995618462562561,
        0.999981701374054,
        0.9999848008155823
      ],
      "min": [
        -0.9978752136230469,
        -0.9999499917030334,
        -0.9999682903289795
      ],
      "type": "VEC3"
    },
    {
      "bufferView": 1,
      "componentType": 5126,
      "count": 3616,
      "max": [
        0.9595530033111572,
        0.9845254421234131
      ],
      "min": [
        -2.0421667912273733e-08,
        1.4204784015703353e-08
      ],
      "type": "VEC2"
    },
    {
      "bufferView": 0,
      "componentType": 5125,
      "count": 19440,
      "type": "SCALAR"
    },
    {
      "bufferView": 2,
      "byteOffset": 86784,
      "componentType": 5126,
      "count": 3606,
      "max": [
        1.0883736610412598,
        0.5983314514160156,
        1.1288025379180908
      ],
      "min": [
        -1.1216576099395752,
        -0.21896012127399445,
        -1.1070897579193115
      ],
      "type": "VEC3"
    },
    {
      "bufferView": 2,
      "byteOffset": 130056,
      "componentType": 5126,
      "count": 3606,
      "max": [
        0.9983699917793274,
        0.9997941851615906,
        0.9999618530273438
      ],
      "min": [
        -0.9994723796844482,
        -0.999980628490448,
        -0.9998025298118591
      ],
      "type": "VEC3"
    },
    {
      "bufferView": 1,
      "byteOffset": 28928,
      "componentType": 5126,
      "count": 3606,
      "max": [
        0.9595530033111572,
        0.9845254421234131
      ],
      "min": [
        -2.0421667912273733e-08,
        1.4204784015703353e-08
      ],
      "type": "VEC2"
    },
    {
      "bufferView": 0,
      "byteOffset": 77760,
      "componentType": 5125,
      "count": 19392,
      "type": "SCALAR"
    }
  ],
  "asset": {
    "extras": {
      "author": "ผมเรียนกราฟิก (https://sketchfab.com/ramakienx)",
      "license": "SKETCHFAB Standard (https://sketchfab.com/licenses)",
      "source": "https://sketchfab.com/3d-models/luffy-hat-3af7f978b35b49d1a51bf1f3aba90923",
      "title": "Luffy Hat"
    },
    "generator": "Sketchfab-15.49.0",
    "version": "2.0"
  },
  "bufferViews": [
    {
      "buffer": 0,
      "byteLength": 155328,
      "name": "floatBufferViews",
      "target": 34963
    },
    {
      "buffer": 0,
      "byteLength": 57776,
      "byteOffset": 155328,
      "byteStride": 8,
      "name": "floatBufferViews",
      "target": 34962
    },
    {
      "buffer": 0,
      "byteLength": 173328,
      "byteOffset": 213104,
      "byteStride": 12,
      "name": "floatBufferViews",
      "target": 34962
    }
  ],
  "buffers": [
    {
      "byteLength": 386432,
      "uri": "scene.bin"
    }
  ],
  "extensionsUsed": [
    "KHR_materials_specular"
  ],
  "images": [
    {
      "uri": "textures/material_baseColor.png"
    }
  ],
  "materials": [
    {
      "doubleSided": true,
      "extensions": {
        "KHR_materials_specular": {
          "specularColorFactor": [
            1.0,
            1.0,
            1.0
          ],
          "specularFactor": 0.3702868427789494
        }
      },
      "name": "material",
      "pbrMetallicRoughness": {
        "baseColorTexture": {
          "index": 0
        },
        "metallicFactor": 0.0
      }
    },
    {
      "emissiveFactor": [
        0.00367105,
        0.00367105,
        0.00367105
      ],
      "name": "line",
      "pbrMetallicRoughness": {
        "baseColorFactor": [
          0.0,
          0.0,
          0.0,
          1.0
        ]
      }
    }
  ],
  "meshes": [
    {
      "name": "Object_0",
      "primitives": [
        {
          "attributes": {
            "NORMAL": 1,
            "POSITION": 0,
            "TEXCOORD_0": 2
          },
          "indices": 3,
          "material": 0,
          "mode": 4
        }
      ]
    },
    {
      "name": "Object_1",
      "primitives": [
        {
          "attributes": {
            "NORMAL": 5,
            "POSITION": 4,
            "TEXCOORD_0": 6
          },
          "indices": 7,
          "material": 1,
          "mode": 4
        }
      ]
    }
  ],
  "nodes": [
    {
      "children": [
        1
      ],
      "matrix": [
        1.0,
        0.0,
        0.0,
        0.0,
        0.0,
        2.220446049250313e-16,
        -1.0,
        0.0,
        0.0,
        1.0,
        2.220446049250313e-16,
        0.0,
        0.0,
        0.0,
        0.0,
        1.0
      ],
      "name": "Sketchfab_model"
    },
    {
      "children": [
        2
      ],
      "name": "root"
    },
    {
      "children": [
        3
      ],
      "matrix": [
        1.0,
        0.0,
        0.0,
        0.0,
        0.0,
        2.220446049250313e-16,
        1.0,
        0.0,
        0.0,
        -1.0,
        2.220446049250313e-16,
        0.0,
        0.0,
        0.0,
        0.0,
        1.0
      ],
      "name": "GLTF_SceneRootNode"
    },
    {
      "children": [
        4,
        5
      ],
      "name": "hat_luffy_0"
    },
    {
      "mesh": 0,
      "name": "Object_4"
    },
    {
      "mesh": 1,
      "name": "Object_5"
    }
  ],
  "samplers": [
    {
      "magFilter": 9729,
      "minFilter": 9987,
      "wrapS": 10497,
      "wrapT": 10497
    }
  ],
  "scene": 0,
  "scenes": [
    {
      "name": "Sketchfab_Scene",
      "nodes": [
        0
      ]
    }
  ],
  "textures": [
    {
      "sampler": 0,
      "source": 0
    }
  ]
}
