{
	"asset":{
		"generator":"Khronos glTF Blender I/O v4.2.70",
		"version":"2.0"
	},
	"scene":0,
	"scenes":[
		{
			"name":"Scene",
			"nodes":[
				0
			]
		}
	],
	"nodes":[
		{
			"mesh":0,
			"name":"Picsart_24-11-03_17-17-16-746.001"
		}
	],
	"materials":[
		{
			"alphaMode":"BLEND",
			"doubleSided":true,
			"name":"fern",
			"pbrMetallicRoughness":{
				"baseColorTexture":{
					"index":0
				},
				"metallicFactor":0
			}
		}
	],
	"meshes":[
		{
			"name":"Picsart_24-11-03_17-17-16-746.020",
			"primitives":[
				{
					"attributes":{
						"POSITION":0,
						"NORMAL":1,
						"TEXCOORD_0":2
					},
					"indices":3,
					"material":0
				}
			]
		}
	],
	"textures":[
		{
			"sampler":0,
			"source":0
		}
	],
	"images":[
		{
			"mimeType":"image/png",
			"name":"Picsart_24-11-03_17-17-16-746",
			"uri":"Picsart_24-11-03_17-17-16-746.png"
		}
	],
	"accessors":[
		{
			"bufferView":0,
			"componentType":5126,
			"count":135,
			"max":[
				0.4741975963115692,
				0.26846346259117126,
				0.47759366035461426
			],
			"min":[
				-0.3650191128253937,
				0.000275537371635437,
				-0.489748477935791
			],
			"type":"VEC3"
		},
		{
			"bufferView":1,
			"componentType":5126,
			"count":135,
			"type":"VEC3"
		},
		{
			"bufferView":2,
			"componentType":5126,
			"count":135,
			"type":"VEC2"
		},
		{
			"bufferView":3,
			"componentType":5123,
			"count":432,
			"type":"SCALAR"
		}
	],
	"bufferViews":[
		{
			"buffer":0,
			"byteLength":1620,
			"byteOffset":0,
			"target":34962
		},
		{
			"buffer":0,
			"byteLength":1620,
			"byteOffset":1620,
			"target":34962
		},
		{
			"buffer":0,
			"byteLength":1080,
			"byteOffset":3240,
			"target":34962
		},
		{
			"buffer":0,
			"byteLength":864,
			"byteOffset":4320,
			"target":34963
		}
	],
	"samplers":[
		{
			"magFilter":9729,
			"minFilter":9987,
			"wrapS":33071,
			"wrapT":33071
		}
	],
	"buffers":[
		{
			"byteLength":5184,
			"uri":"fern.bin"
		}
	]
}
