{
  "accessors": [
    {
      "bufferView": 2,
      "componentType": 5126,
      "count": 322,
      "max": [
        4.133857727050781,
        5.846456527709961,
        0.004724409431219101
      ],
      "min": [
        -4.1338582038879395,
        -5.846456527709961,
        0.0
      ],
      "type": "VEC3"
    },
    {
      "bufferView": 2,
      "byteOffset": 3864,
      "componentType": 5126,
      "count": 322,
      "max": [
        1.0,
        1.0,
        1.0
      ],
      "min": [
        -1.0,
        -1.0,
        -1.0
      ],
      "type": "VEC3"
    },
    {
      "bufferView": 3,
      "componentType": 5126,
      "count": 322,
      "max": [
        1.0,
        0.0,
        0.0,
        1.0
      ],
      "min": [
        0.0,
        0.0,
        -1.0,
        1.0
      ],
      "type": "VEC4"
    },
    {
      "bufferView": 1,
      "componentType": 5126,
      "count": 322,
      "max": [
        0.9962183833122253,
        0.6986788511276245
      ],
      "min": [
        0.005461983382701874,
        0.005998427513986826
      ],
      "type": "VEC2"
    },
    {
      "bufferView": 1,
      "byteOffset": 2576,
      "componentType": 5126,
      "count": 322,
      "max": [
        0.9962183833122253,
        0.6986788511276245
      ],
      "min": [
        0.005461983382701874,
        0.005998427513986826
      ],
      "type": "VEC2"
    },
    {
      "bufferView": 1,
      "byteOffset": 5152,
      "componentType": 5126,
      "count": 322,
      "max": [
        0.9962183833122253,
        0.6986788511276245
      ],
      "min": [
        0.005461983382701874,
        0.005998427513986826
      ],
      "type": "VEC2"
    },
    {
      "bufferView": 0,
      "componentType": 5125,
      "count": 1392,
      "type": "SCALAR"
    },
    {
      "bufferView": 2,
      "byteOffset": 7728,
      "componentType": 5126,
      "count": 322,
      "max": [
        4.133858680725098,
        5.846456050872803,
        0.629976749420166
      ],
      "min": [
        -4.1338582038879395,
        -5.67903995513916,
        2.2213417865920345e-15
      ],
      "type": "VEC3"
    },
    {
      "bufferView": 2,
      "byteOffset": 11592,
      "componentType": 5126,
      "count": 322,
      "max": [
        1.0,
        1.0,
        0.9999901056289673
      ],
      "min": [
        -1.0,
        -1.0,
        -0.9999901056289673
      ],
      "type": "VEC3"
    },
    {
      "bufferView": 3,
      "byteOffset": 5152,
      "componentType": 5126,
      "count": 322,
      "max": [
        1.0,
        1.5525018852713401e-06,
        1.429482381354319e-07,
        1.0
      ],
      "min": [
        0.0,
        -1.2296702607272891e-06,
        -1.0,
        1.0
      ],
      "type": "VEC4"
    },
    {
      "bufferView": 1,
      "byteOffset": 7728,
      "componentType": 5126,
      "count": 322,
      "max": [
        0.9962183833122253,
        0.6986788511276245
      ],
      "min": [
        0.005461983382701874,
        0.005998427513986826
      ],
      "type": "VEC2"
    },
    {
      "bufferView": 1,
      "byteOffset": 10304,
      "componentType": 5126,
      "count": 322,
      "max": [
        0.9962183833122253,
        0.6986788511276245
      ],
      "min": [
        0.005461983382701874,
        0.005998427513986826
      ],
      "type": "VEC2"
    },
    {
      "bufferView": 1,
      "byteOffset": 12880,
      "componentType": 5126,
      "count": 322,
      "max": [
        0.9962183833122253,
        0.6986788511276245
      ],
      "min": [
        0.005461983382701874,
        0.005998427513986826
      ],
      "type": "VEC2"
    },
    {
      "bufferView": 0,
      "byteOffset": 5568,
      "componentType": 5125,
      "count": 1392,
      "type": "SCALAR"
    },
    {
      "bufferView": 2,
      "byteOffset": 15456,
      "componentType": 5126,
      "count": 322,
      "max": [
        4.133857727050781,
        5.846456050872803,
        1.3117765188217163
      ],
      "min": [
        -4.133858680725098,
        -5.357884407043457,
        4.643580306515002e-15
      ],
      "type": "VEC3"
    },
    {
      "bufferView": 2,
      "byteOffset": 19320,
      "componentType": 5126,
      "count": 322,
      "max": [
        1.0,
        1.0,
        0.9999563694000244
      ],
      "min": [
        -1.0,
        -1.0,
        -0.9999563694000244
      ],
      "type": "VEC3"
    },
    {
      "bufferView": 3,
      "byteOffset": 10304,
      "componentType": 5126,
      "count": 322,
      "max": [
        1.0,
        1.5509971262872568e-06,
        1.1781109066077988e-07,
        1.0
      ],
      "min": [
        0.0,
        -1.0863088846235769e-06,
        -1.0,
        1.0
      ],
      "type": "VEC4"
    },
    {
      "bufferView": 1,
      "byteOffset": 15456,
      "componentType": 5126,
      "count": 322,
      "max": [
        0.9962183833122253,
        0.6986788511276245
      ],
      "min": [
        0.005461983382701874,
        0.005998427513986826
      ],
      "type": "VEC2"
    },
    {
      "bufferView": 1,
      "byteOffset": 18032,
      "componentType": 5126,
      "count": 322,
      "max": [
        0.9962183833122253,
        0.6986788511276245
      ],
      "min": [
        0.005461983382701874,
        0.005998427513986826
      ],
      "type": "VEC2"
    },
    {
      "bufferView": 1,
      "byteOffset": 20608,
      "componentType": 5126,
      "count": 322,
      "max": [
        0.9962183833122253,
        0.6986788511276245
      ],
      "min": [
        0.005461983382701874,
        0.005998427513986826
      ],
      "type": "VEC2"
    },
    {
      "bufferView": 0,
      "byteOffset": 11136,
      "componentType": 5125,
      "count": 1392,
      "type": "SCALAR"
    }
  ],
  "asset": {
    "extras": {
      "author": "plaggy (https://sketchfab.com/plaggy)",
      "license": "CC-BY-4.0 (http://creativecommons.org/licenses/by/4.0/)",
      "source": "https://sketchfab.com/3d-models/cc0-paper-b0776948a05f4766a03856223344b264",
      "title": "CC0 - Paper"
    },
    "generator": "Sketchfab-11.19.0",
    "version": "2.0"
  },
  "bufferViews": [
    {
      "buffer": 0,
      "byteLength": 16704,
      "name": "floatBufferViews",
      "target": 34963
    },
    {
      "buffer": 0,
      "byteLength": 23184,
      "byteOffset": 16704,
      "byteStride": 8,
      "name": "floatBufferViews",
      "target": 34962
    },
    {
      "buffer": 0,
      "byteLength": 23184,
      "byteOffset": 39888,
      "byteStride": 12,
      "name": "floatBufferViews",
      "target": 34962
    },
    {
      "buffer": 0,
      "byteLength": 15456,
      "byteOffset": 63072,
      "byteStride": 16,
      "name": "floatBufferViews",
      "target": 34962
    }
  ],
  "buffers": [
    {
      "byteLength": 78528,
      "uri": "scene.bin"
    }
  ],
  "images": [
    {
      "uri": "textures/Paper_baseColor.png"
    },
    {
      "uri": "textures/Paper_metallicRoughness.png"
    },
    {
      "uri": "textures/Paper_normal.png"
    }
  ],
  "materials": [
    {
      "name": "Paper",
      "normalTexture": {
        "index": 2
      },
      "pbrMetallicRoughness": {
        "baseColorTexture": {
          "index": 0
        },
        "metallicRoughnessTexture": {
          "index": 1
        }
      }
    },
    {
      "name": "Paper2",
      "normalTexture": {
        "index": 2
      },
      "pbrMetallicRoughness": {
        "baseColorTexture": {
          "index": 0
        },
        "metallicRoughnessTexture": {
          "index": 1
        }
      }
    },
    {
      "doubleSided": true,
      "name": "Material_27",
      "normalTexture": {
        "index": 2
      },
      "pbrMetallicRoughness": {
        "baseColorTexture": {
          "index": 0
        },
        "metallicRoughnessTexture": {
          "index": 1
        }
      }
    }
  ],
  "meshes": [
    {
      "name": "Paper_Paper_0",
      "primitives": [
        {
          "attributes": {
            "NORMAL": 1,
            "POSITION": 0,
            "TANGENT": 2,
            "TEXCOORD_0": 3,
            "TEXCOORD_1": 4,
            "TEXCOORD_2": 5
          },
          "indices": 6,
          "material": 0,
          "mode": 4
        }
      ]
    },
    {
      "name": "Paper2_Paper2_0",
      "primitives": [
        {
          "attributes": {
            "NORMAL": 8,
            "POSITION": 7,
            "TANGENT": 9,
            "TEXCOORD_0": 10,
            "TEXCOORD_1": 11,
            "TEXCOORD_2": 12
          },
          "indices": 13,
          "material": 1,
          "mode": 4
        }
      ]
    },
    {
      "name": "Paper3_Material #27_0",
      "primitives": [
        {
          "attributes": {
            "NORMAL": 15,
            "POSITION": 14,
            "TANGENT": 16,
            "TEXCOORD_0": 17,
            "TEXCOORD_1": 18,
            "TEXCOORD_2": 19
          },
          "indices": 20,
          "material": 2,
          "mode": 4
        }
      ]
    }
  ],
  "nodes": [
    {
      "children": [
        1
      ],
      "matrix": [
        1.0,
        0.0,
        0.0,
        0.0,
        0.0,
        2.220446049250313e-16,
        -1.0,
        0.0,
        0.0,
        1.0,
        2.220446049250313e-16,
        0.0,
        0.0,
        0.0,
        0.0,
        1.0
      ],
      "name": "Sketchfab_model"
    },
    {
      "children": [
        2
      ],
      "matrix": [
        1.0,
        0.0,
        0.0,
        0.0,
        0.0,
        0.0,
        1.0,
        0.0,
        0.0,
        -1.0,
        0.0,
        0.0,
        0.0,
        0.0,
        0.0,
        1.0
      ],
      "name": "bfa9bbff7b1a4208b6fac814608e731b.fbx"
    },
    {
      "children": [
        3,
        6,
        9
      ],
      "name": "RootNode"
    },
    {
      "children": [
        4
      ],
      "matrix": [
        0.02539999969303608,
        0.0,
        0.0,
        0.0,
        0.0,
        0.02539999969303574,
        4.138185347540052e-09,
        0.0,
        0.0,
        -4.138185347540052e-09,
        0.02539999969303574,
        0.0,
        -0.0635010227560997,
        -9.775241380238775e-12,
        -0.016800427809357643,
        1.0
      ],
      "name": "Paper"
    },
    {
      "children": [
        5
      ],
      "matrix": [
        1.0,
        0.0,
        -0.0,
        0.0,
        0.0,
        1.0,
        0.0,
        0.0,
        0.0,
        0.0,
        1.0,
        0.0,
        2.384185791015625e-07,
        0.0,
        -0.0023622047156095505,
        1.0
      ],
      "name": "Object_4"
    },
    {
      "mesh": 0,
      "name": "Paper_Paper_0"
    },
    {
      "children": [
        7
      ],
      "matrix": [
        0.02539999969303608,
        0.0,
        0.0,
        0.0,
        0.0,
        0.02539999969303574,
        4.138185347540052e-09,
        0.0,
        0.0,
        -4.138185347540052e-09,
        0.02539999969303574,
        0.0,
        -0.002284108428284526,
        -0.026547089219093323,
        -0.008184289559721947,
        1.0
      ],
      "name": "Paper2"
    },
    {
      "children": [
        8
      ],
      "matrix": [
        1.0,
        0.0,
        -0.0,
        0.0,
        0.0,
        1.0,
        0.0,
        0.0,
        0.0,
        0.0,
        1.0,
        0.0,
        2.384185791015625e-07,
        0.0,
        -0.0023622047156095505,
        1.0
      ],
      "name": "Object_7"
    },
    {
      "mesh": 1,
      "name": "Paper2_Paper2_0"
    },
    {
      "children": [
        10
      ],
      "matrix": [
        0.02539999969303608,
        0.0,
        0.0,
        0.0,
        0.0,
        0.02539999969303574,
        4.138185347540052e-09,
        0.0,
        0.0,
        -4.138185347540052e-09,
        0.02539999969303574,
        0.0,
        0.06578513234853745,
        -0.05853215232491493,
        0.0055582355707883835,
        1.0
      ],
      "name": "Paper3"
    },
    {
      "children": [
        11
      ],
      "matrix": [
        1.0,
        0.0,
        -0.0,
        0.0,
        0.0,
        1.0,
        0.0,
        0.0,
        0.0,
        0.0,
        1.0,
        0.0,
        2.384185791015625e-07,
        0.0,
        -0.0023622047156095505,
        1.0
      ],
      "name": "Object_10"
    },
    {
      "mesh": 2,
      "name": "Paper3_Material #27_0"
    }
  ],
  "samplers": [
    {
      "magFilter": 9729,
      "minFilter": 9987,
      "wrapS": 10497,
      "wrapT": 10497
    }
  ],
  "scene": 0,
  "scenes": [
    {
      "name": "Sketchfab_Scene",
      "nodes": [
        0
      ]
    }
  ],
  "textures": [
    {
      "sampler": 0,
      "source": 0
    },
    {
      "sampler": 0,
      "source": 1
    },
    {
      "sampler": 0,
      "source": 2
    }
  ]
}
